<svg width="90" height="17" viewBox="0 0 90 17" fill="none" xmlns="http://www.w3.org/2000/svg">
<path d="M0 15.8001V0H1.50261L8.19603 10.9963H7.17153L13.865 0H15.3676V15.8001H13.2275V3.75651L13.7284 3.89311L8.44647 12.5672H6.94386L1.66197 3.89311L2.14007 3.75651V15.8001H0Z" fill="white"/>
<path d="M22.6044 16.0278C21.5267 16.0278 20.5554 15.7849 19.6902 15.2993C18.8251 14.7984 18.1421 14.123 17.6412 13.273C17.1403 12.4231 16.8899 11.4593 16.8899 10.3816C16.8899 9.31919 17.1328 8.36299 17.6184 7.51303C18.1193 6.66307 18.7871 5.99524 19.6219 5.50955C20.4719 5.00869 21.4205 4.75825 22.4678 4.75825C23.4695 4.75825 24.3498 4.98592 25.1087 5.44125C25.8828 5.89659 26.4823 6.52647 26.9073 7.33089C27.3474 8.13532 27.5675 9.04599 27.5675 10.0629C27.5675 10.2147 27.5599 10.3816 27.5447 10.5638C27.5296 10.7307 27.4992 10.928 27.4537 11.1557H18.3242V9.4482H26.3609L25.6096 10.1084C25.6096 9.3799 25.4806 8.7652 25.2225 8.26433C24.9645 7.74828 24.6002 7.35366 24.1297 7.08046C23.6592 6.79208 23.0901 6.64789 22.4222 6.64789C21.724 6.64789 21.1093 6.79967 20.5781 7.10323C20.0469 7.40678 19.6371 7.83176 19.3487 8.37817C19.0603 8.92457 18.9161 9.56962 18.9161 10.3133C18.9161 11.0722 19.0679 11.7401 19.3715 12.3168C19.675 12.8784 20.1076 13.3186 20.6692 13.6373C21.2308 13.9408 21.8758 14.0926 22.6044 14.0926C23.2115 14.0926 23.7655 13.9864 24.2663 13.7739C24.7824 13.5614 25.2225 13.2427 25.5868 12.8177L26.9073 14.1609C26.3912 14.768 25.7538 15.231 24.9949 15.5497C24.2512 15.8684 23.4543 16.0278 22.6044 16.0278Z" fill="white"/>
<path d="M30.0141 15.8001V0.455335H32.0631V15.8001H30.0141ZM27.3503 6.85279V4.98592H34.7268V6.85279H27.3503Z" fill="white"/>
<path d="M40.1945 16.0278C39.208 16.0278 38.3125 15.7849 37.508 15.2993C36.7036 14.7984 36.0662 14.123 35.5956 13.273C35.1403 12.4231 34.9126 11.4669 34.9126 10.4044C34.9126 9.34196 35.1403 8.38575 35.5956 7.5358C36.0662 6.68584 36.696 6.01042 37.4853 5.50955C38.2897 5.00869 39.1928 4.75825 40.1945 4.75825C41.0141 4.75825 41.7427 4.9328 42.3801 5.28189C43.0328 5.6158 43.5564 6.08631 43.951 6.69343C44.3457 7.28536 44.5657 7.97595 44.6113 8.7652V12.0208C44.5657 12.7949 44.3457 13.4855 43.951 14.0926C43.5716 14.6997 43.0555 15.1778 42.4029 15.5269C41.7654 15.8608 41.0293 16.0278 40.1945 16.0278ZM40.536 14.0926C41.5529 14.0926 42.3725 13.7511 42.9948 13.0681C43.6171 12.3699 43.9283 11.482 43.9283 10.4044C43.9283 9.66069 43.7841 9.01563 43.4957 8.46923C43.2225 7.90765 42.8279 7.47508 42.3118 7.17153C41.7958 6.85279 41.1963 6.69343 40.5133 6.69343C39.8303 6.69343 39.2231 6.85279 38.6919 7.17153C38.1759 7.49026 37.7661 7.93042 37.4625 8.492C37.1741 9.0384 37.0299 9.66828 37.0299 10.3816C37.0299 11.1102 37.1741 11.7552 37.4625 12.3168C37.7661 12.8632 38.1835 13.2958 38.7147 13.6145C39.2459 13.9333 39.853 14.0926 40.536 14.0926ZM43.7917 15.8001V12.886L44.1787 10.245L43.7917 7.62686V4.98592H45.8634V15.8001H43.7917Z" fill="white"/>
<path d="M52.5576 15.8001L46.2284 0H48.5506L53.7642 13.3641H52.9219L58.181 0H60.4804L54.1057 15.8001H52.5576Z" fill="white"/>
<path d="M63.9369 16.0278C62.9503 16.0278 62.0548 15.7849 61.2504 15.2993C60.446 14.7984 59.8085 14.123 59.338 13.273C58.8827 12.4231 58.655 11.4669 58.655 10.4044C58.655 9.34196 58.8827 8.38575 59.338 7.5358C59.8085 6.68584 60.4384 6.01042 61.2276 5.50955C62.0321 5.00869 62.9351 4.75825 63.9369 4.75825C64.7565 4.75825 65.485 4.9328 66.1225 5.28189C66.7751 5.6158 67.2988 6.08631 67.6934 6.69343C68.088 7.28536 68.3081 7.97595 68.3536 8.7652V12.0208C68.3081 12.7949 68.088 13.4855 67.6934 14.0926C67.3139 14.6997 66.7979 15.1778 66.1452 15.5269C65.5078 15.8608 64.7717 16.0278 63.9369 16.0278ZM64.2784 14.0926C65.2953 14.0926 66.1149 13.7511 66.7372 13.0681C67.3595 12.3699 67.6706 11.482 67.6706 10.4044C67.6706 9.66069 67.5264 9.01563 67.2381 8.46923C66.9649 7.90765 66.5702 7.47508 66.0542 7.17153C65.5381 6.85279 64.9386 6.69343 64.2556 6.69343C63.5726 6.69343 62.9655 6.85279 62.4343 7.17153C61.9182 7.49026 61.5084 7.93042 61.2049 8.492C60.9165 9.0384 60.7723 9.66828 60.7723 10.3816C60.7723 11.1102 60.9165 11.7552 61.2049 12.3168C61.5084 12.8632 61.9258 13.2958 62.457 13.6145C62.9883 13.9333 63.5954 14.0926 64.2784 14.0926ZM67.534 15.8001V12.886L67.9211 10.245L67.534 7.62686V4.98592H69.6058V15.8001H67.534Z" fill="white"/>
<path d="M74.8884 16.0278C74.2813 16.0278 73.7045 15.9519 73.1581 15.8001C72.6269 15.6332 72.1336 15.4055 71.6783 15.1171C71.2229 14.8136 70.8283 14.4569 70.4944 14.0471L71.8149 12.7266C72.2095 13.2123 72.6648 13.5766 73.1809 13.8194C73.6969 14.0471 74.2737 14.1609 74.9112 14.1609C75.5486 14.1609 76.0419 14.0547 76.391 13.8422C76.7401 13.6145 76.9146 13.3034 76.9146 12.9087C76.9146 12.5141 76.7704 12.2106 76.4821 11.9981C76.2089 11.7704 75.8522 11.5883 75.412 11.4517C74.9719 11.2999 74.5014 11.1557 74.0005 11.0191C73.5148 10.8673 73.0519 10.6776 72.6117 10.4499C72.1716 10.2223 71.8073 9.91113 71.5189 9.5165C71.2457 9.12188 71.1091 8.59824 71.1091 7.9456C71.1091 7.29295 71.2685 6.73137 71.5872 6.26086C71.9059 5.77517 72.3461 5.40331 72.9077 5.14529C73.4844 4.88726 74.175 4.75825 74.9795 4.75825C75.8294 4.75825 76.5807 4.91003 77.2334 5.21359C77.9012 5.50197 78.4476 5.94212 78.8726 6.53406L77.5521 7.85453C77.2485 7.45991 76.8691 7.15635 76.4138 6.94386C75.9736 6.73137 75.4727 6.62512 74.9112 6.62512C74.3192 6.62512 73.8639 6.73137 73.5452 6.94386C73.2416 7.14117 73.0898 7.42196 73.0898 7.78623C73.0898 8.1505 73.2264 8.43129 73.4996 8.6286C73.7728 8.82591 74.1295 8.99287 74.5697 9.12947C75.025 9.26607 75.4955 9.41026 75.9812 9.56204C76.4669 9.69864 76.9298 9.88836 77.37 10.1312C77.8101 10.3741 78.1668 10.7004 78.44 11.1102C78.7284 11.52 78.8726 12.0588 78.8726 12.7266C78.8726 13.7435 78.5083 14.548 77.7798 15.1399C77.0664 15.7318 76.1026 16.0278 74.8884 16.0278Z" fill="white"/>
<path d="M85.0368 16.0278C83.9592 16.0278 82.9878 15.7849 82.1227 15.2993C81.2576 14.7984 80.5746 14.123 80.0737 13.273C79.5728 12.4231 79.3224 11.4593 79.3224 10.3816C79.3224 9.31919 79.5652 8.36299 80.0509 7.51303C80.5518 6.66307 81.2196 5.99524 82.0544 5.50955C82.9044 5.00869 83.853 4.75825 84.9002 4.75825C85.902 4.75825 86.7823 4.98592 87.5412 5.44125C88.3153 5.89659 88.9148 6.52647 89.3398 7.33089C89.7799 8.13532 90 9.04599 90 10.0629C90 10.2147 89.9924 10.3816 89.9772 10.5638C89.9621 10.7307 89.9317 10.928 89.8862 11.1557H80.7567V9.4482H88.7934L88.0421 10.1084C88.0421 9.3799 87.9131 8.7652 87.655 8.26433C87.397 7.74828 87.0327 7.35366 86.5622 7.08046C86.0917 6.79208 85.5225 6.64789 84.8547 6.64789C84.1565 6.64789 83.5418 6.79967 83.0106 7.10323C82.4794 7.40678 82.0696 7.83176 81.7812 8.37817C81.4928 8.92457 81.3486 9.56962 81.3486 10.3133C81.3486 11.0722 81.5004 11.7401 81.804 12.3168C82.1075 12.8784 82.5401 13.3186 83.1017 13.6373C83.6633 13.9408 84.3083 14.0926 85.0368 14.0926C85.644 14.0926 86.198 13.9864 86.6988 13.7739C87.2149 13.5614 87.655 13.2427 88.0193 12.8177L89.3398 14.1609C88.8237 14.768 88.1863 15.231 87.4274 15.5497C86.6836 15.8684 85.8868 16.0278 85.0368 16.0278Z" fill="white"/>
<path d="M52.5576 15.8001L46.2284 0H48.5506L53.7642 13.3641H52.9219L58.181 0H60.4804L54.1057 15.8001H52.5576Z" fill="white"/>
<path d="M63.9369 16.0278C62.9503 16.0278 62.0548 15.7849 61.2504 15.2993C60.446 14.7984 59.8085 14.123 59.338 13.273C58.8827 12.4231 58.655 11.4669 58.655 10.4044C58.655 9.34196 58.8827 8.38575 59.338 7.5358C59.8085 6.68584 60.4384 6.01042 61.2276 5.50955C62.0321 5.00869 62.9351 4.75825 63.9369 4.75825C64.7565 4.75825 65.485 4.9328 66.1225 5.28189C66.7751 5.6158 67.2988 6.08631 67.6934 6.69343C68.088 7.28536 68.3081 7.97595 68.3536 8.7652V12.0208C68.3081 12.7949 68.088 13.4855 67.6934 14.0926C67.3139 14.6997 66.7979 15.1778 66.1452 15.5269C65.5078 15.8608 64.7717 16.0278 63.9369 16.0278ZM64.2784 14.0926C65.2953 14.0926 66.1149 13.7511 66.7372 13.0681C67.3595 12.3699 67.6706 11.482 67.6706 10.4044C67.6706 9.66069 67.5264 9.01563 67.2381 8.46923C66.9649 7.90765 66.5702 7.47508 66.0542 7.17153C65.5381 6.85279 64.9386 6.69343 64.2556 6.69343C63.5726 6.69343 62.9655 6.85279 62.4343 7.17153C61.9182 7.49026 61.5084 7.93042 61.2049 8.492C60.9165 9.0384 60.7723 9.66828 60.7723 10.3816C60.7723 11.1102 60.9165 11.7552 61.2049 12.3168C61.5084 12.8632 61.9258 13.2958 62.457 13.6145C62.9883 13.9333 63.5954 14.0926 64.2784 14.0926ZM67.534 15.8001V12.886L67.9211 10.245L67.534 7.62686V4.98592H69.6058V15.8001H67.534Z" fill="white"/>
<path d="M74.8884 16.0278C74.2813 16.0278 73.7045 15.9519 73.1581 15.8001C72.6269 15.6332 72.1336 15.4055 71.6783 15.1171C71.2229 14.8136 70.8283 14.4569 70.4944 14.0471L71.8149 12.7266C72.2095 13.2123 72.6648 13.5766 73.1809 13.8194C73.6969 14.0471 74.2737 14.1609 74.9112 14.1609C75.5486 14.1609 76.0419 14.0547 76.391 13.8422C76.7401 13.6145 76.9146 13.3034 76.9146 12.9087C76.9146 12.5141 76.7704 12.2106 76.4821 11.9981C76.2089 11.7704 75.8522 11.5883 75.412 11.4517C74.9719 11.2999 74.5014 11.1557 74.0005 11.0191C73.5148 10.8673 73.0519 10.6776 72.6117 10.4499C72.1716 10.2223 71.8073 9.91113 71.5189 9.5165C71.2457 9.12188 71.1091 8.59824 71.1091 7.9456C71.1091 7.29295 71.2685 6.73137 71.5872 6.26086C71.9059 5.77517 72.3461 5.40331 72.9077 5.14529C73.4844 4.88726 74.175 4.75825 74.9795 4.75825C75.8294 4.75825 76.5807 4.91003 77.2334 5.21359C77.9012 5.50197 78.4476 5.94212 78.8726 6.53406L77.5521 7.85453C77.2485 7.45991 76.8691 7.15635 76.4138 6.94386C75.9736 6.73137 75.4727 6.62512 74.9112 6.62512C74.3192 6.62512 73.8639 6.73137 73.5452 6.94386C73.2416 7.14117 73.0898 7.42196 73.0898 7.78623C73.0898 8.1505 73.2264 8.43129 73.4996 8.6286C73.7728 8.82591 74.1295 8.99287 74.5697 9.12947C75.025 9.26607 75.4955 9.41026 75.9812 9.56204C76.4669 9.69864 76.9298 9.88836 77.37 10.1312C77.8101 10.3741 78.1668 10.7004 78.44 11.1102C78.7284 11.52 78.8726 12.0588 78.8726 12.7266C78.8726 13.7435 78.5083 14.548 77.7798 15.1399C77.0664 15.7318 76.1026 16.0278 74.8884 16.0278Z" fill="white"/>
<path d="M85.0368 16.0278C83.9592 16.0278 82.9878 15.7849 82.1227 15.2993C81.2576 14.7984 80.5746 14.123 80.0737 13.273C79.5728 12.4231 79.3224 11.4593 79.3224 10.3816C79.3224 9.31919 79.5652 8.36299 80.0509 7.51303C80.5518 6.66307 81.2196 5.99524 82.0544 5.50955C82.9044 5.00869 83.853 4.75825 84.9002 4.75825C85.902 4.75825 86.7823 4.98592 87.5412 5.44125C88.3153 5.89659 88.9148 6.52647 89.3398 7.33089C89.7799 8.13532 90 9.04599 90 10.0629C90 10.2147 89.9924 10.3816 89.9772 10.5638C89.9621 10.7307 89.9317 10.928 89.8862 11.1557H80.7567V9.4482H88.7934L88.0421 10.1084C88.0421 9.3799 87.9131 8.7652 87.655 8.26433C87.397 7.74828 87.0327 7.35366 86.5622 7.08046C86.0917 6.79208 85.5225 6.64789 84.8547 6.64789C84.1565 6.64789 83.5418 6.79967 83.0106 7.10323C82.4794 7.40678 82.0696 7.83176 81.7812 8.37817C81.4928 8.92457 81.3486 9.56962 81.3486 10.3133C81.3486 11.0722 81.5004 11.7401 81.804 12.3168C82.1075 12.8784 82.5401 13.3186 83.1017 13.6373C83.6633 13.9408 84.3083 14.0926 85.0368 14.0926C85.644 14.0926 86.198 13.9864 86.6988 13.7739C87.2149 13.5614 87.655 13.2427 88.0193 12.8177L89.3398 14.1609C88.8237 14.768 88.1863 15.231 87.4274 15.5497C86.6836 15.8684 85.8868 16.0278 85.0368 16.0278Z" fill="white"/>
</svg>
