<svg width="160" height="132" viewBox="0 0 160 132" fill="none" xmlns="http://www.w3.org/2000/svg">
<g filter="url(#filter0_bdd_537_1763)">
<rect x="20" y="10" width="120" height="92" rx="20" fill="#EBEBF5" fill-opacity="0.6" shape-rendering="crispEdges"/>
<path fill-rule="evenodd" clip-rule="evenodd" d="M71.1716 33.1716C70 34.3431 70 36.2288 70 40V44C70 47.7712 70 49.6568 71.1716 50.8284C72.3431 52 74.2288 52 78 52H82C85.7712 52 87.6569 52 88.8284 50.8284C90 49.6569 90 47.7712 90 44V44V40C90 37.1607 90 35.3902 89.5 34.1886V47C88.5396 47 87.6185 46.6185 86.9393 45.9393L86.1877 45.1877C85.4664 44.4664 85.1057 44.1057 84.6968 43.9537C84.2473 43.7867 83.7527 43.7867 83.3032 43.9537C82.8943 44.1057 82.5336 44.4664 81.8123 45.1877L81.6992 45.3008C81.1138 45.8862 80.8212 46.1788 80.5102 46.2334C80.2685 46.2758 80.0197 46.2279 79.811 46.0988C79.5425 45.9326 79.3795 45.5522 79.0534 44.7913L79 44.6667C78.2504 42.9175 77.8755 42.0429 77.2217 41.7151C76.8925 41.5501 76.5241 41.4792 76.1572 41.5101C75.4284 41.5716 74.7555 42.2445 73.4099 43.5901L71.5 45.5V32.8874C71.3844 32.9735 71.2752 33.0679 71.1716 33.1716Z" fill="black"/>
<path d="M71 40C71 38.0861 71.0021 36.7513 71.1375 35.7442C71.2691 34.7658 71.5097 34.2477 71.8787 33.8787C72.2477 33.5097 72.7658 33.2691 73.7442 33.1375C74.7513 33.0021 76.0861 33 78 33H82C83.9139 33 85.2487 33.0021 86.2558 33.1375C87.2342 33.2691 87.7523 33.5097 88.1213 33.8787C88.4903 34.2477 88.7309 34.7658 88.8625 35.7442C88.9979 36.7513 89 38.0861 89 40V44C89 45.9139 88.9979 47.2487 88.8625 48.2558C88.7309 49.2342 88.4903 49.7523 88.1213 50.1213C87.7523 50.4903 87.2342 50.7309 86.2558 50.8625C85.2487 50.9979 83.9139 51 82 51H78C76.0861 51 74.7513 50.9979 73.7442 50.8625C72.7658 50.7309 72.2477 50.4903 71.8787 50.1213C71.5097 49.7523 71.2691 49.2342 71.1375 48.2558C71.0021 47.2487 71 45.9139 71 44V40Z" stroke="black" stroke-width="2"/>
<circle cx="83" cy="39" r="2" fill="black"/>
<path d="M43.952 62.752C43.2 65.216 42.032 67.376 40.464 69.232L40.96 70.848C41.488 70.288 41.984 69.712 42.448 69.104V77.68H43.984V66.736C44.56 65.68 45.024 64.576 45.392 63.408L43.952 62.752ZM46.064 63.536V68.848H49.168V70.256H44.848V71.728H47.808C46.912 73.28 45.792 74.528 44.416 75.488L45.28 76.864C46.768 75.632 48.016 73.92 49.024 71.728H49.168V77.648H50.672V71.728H50.8C51.776 73.776 52.992 75.472 54.464 76.848L55.456 75.52C54 74.432 52.864 73.168 52.032 71.728H55.152V70.256H50.672V68.848H53.808V63.536H46.064ZM52.304 67.392H47.568V64.992H52.304V67.392ZM57.248 64.336V65.824H60.848C59.84 67.936 58.416 69.792 56.592 71.408L57.536 72.624C57.984 72.224 58.416 71.808 58.832 71.36V77.664H60.32V69.584C61.184 68.432 61.904 67.168 62.496 65.824H71.072V64.336H63.088C63.232 63.888 63.376 63.424 63.504 62.96L61.968 62.784C61.824 63.296 61.664 63.808 61.472 64.336H57.248ZM61.392 71.856V73.328H65.904V75.456C65.904 75.952 65.648 76.208 65.168 76.208C64.528 76.208 63.936 76.192 63.392 76.16L63.792 77.6H65.776C66.864 77.6 67.408 77.04 67.408 75.936V73.328H71.28V71.856H67.408V71.168C68.464 70.448 69.408 69.68 70.256 68.88V67.488H62.608V68.88H68.352C67.568 69.52 66.752 70.08 65.904 70.56V71.856H61.392ZM73.28 63.568V65.024H77.472C76.432 66.656 75.168 67.872 73.68 68.704L74.096 70.016C77.504 69.856 80.816 69.52 84.048 69.024C84.432 69.52 84.784 70.016 85.104 70.496L86.368 69.6C85.584 68.448 84.448 67.104 82.976 65.552L81.744 66.336C82.176 66.8 82.592 67.264 83.008 67.744C80.832 68.096 78.608 68.336 76.336 68.496C77.424 67.568 78.384 66.416 79.232 65.024H86.656V63.568H73.28ZM73.952 71.872V73.312H79.232V75.568H72.912V77.056H87.088V75.568H80.768V73.312H85.952V71.872H80.768V70.224H79.232V71.872H73.952ZM94.288 65.024C93.792 66.16 92.848 67.136 91.44 67.936L92.272 69.04C92.816 68.688 93.312 68.32 93.744 67.936C94.128 68.32 94.576 68.688 95.088 69.04C94.032 69.488 92.72 69.824 91.184 70.08L91.84 71.296C93.6 70.896 95.088 70.4 96.304 69.792C97.392 70.368 98.672 70.848 100.16 71.248L100.944 70.112C99.68 69.824 98.56 69.472 97.568 69.024C98.4 68.416 99.024 67.728 99.424 66.944V65.92H95.312C95.424 65.696 95.536 65.456 95.632 65.2L94.288 65.024ZM96.336 68.416C95.648 68.032 95.04 67.584 94.528 67.104C94.528 67.072 94.56 67.056 94.592 67.024H97.904C97.52 67.536 96.992 68 96.336 68.416ZM93.232 72.72L92.656 73.856C94.784 74.272 96.832 74.832 98.816 75.552L99.312 74.336C97.36 73.632 95.344 73.104 93.232 72.72ZM94.864 70.56L94.176 71.552C95.376 71.904 96.544 72.384 97.68 73.008L98.384 71.92C97.328 71.392 96.144 70.944 94.864 70.56ZM102.688 63.472H89.312V77.648H90.8V77.088H101.2V77.648H102.688V63.472ZM90.8 75.744V64.816H101.2V75.744H90.8ZM112.752 62.768L111.056 63.056C111.312 63.408 111.568 63.776 111.792 64.192H105.904V69.12C105.872 72.272 105.44 74.736 104.624 76.512L105.888 77.648C106.88 75.504 107.392 72.672 107.44 69.12V65.68H119.168V64.192H113.488C113.248 63.664 113.008 63.184 112.752 62.768ZM111.328 65.904C111.168 66.384 111.008 66.848 110.848 67.296H108.144V68.624H110.288C109.84 69.616 109.344 70.432 108.816 71.088L109.136 72.416H113.152V73.856H107.552V75.232H113.152V77.664H114.656V75.232H119.312V73.856H114.656V72.416H118.112V71.056H114.656V69.296H113.152V71.056H110.672C111.12 70.336 111.536 69.52 111.92 68.624H118.464V67.296H112.432C112.544 66.96 112.656 66.608 112.784 66.24L111.328 65.904Z" fill="#1C1C1E"/>
</g>
<defs>
<filter id="filter0_bdd_537_1763" x="0" y="-10" width="160" height="142" filterUnits="userSpaceOnUse" color-interpolation-filters="sRGB">
<feFlood flood-opacity="0" result="BackgroundImageFix"/>
<feGaussianBlur in="BackgroundImage" stdDeviation="10"/>
<feComposite in2="SourceAlpha" operator="in" result="effect1_backgroundBlur_537_1763"/>
<feColorMatrix in="SourceAlpha" type="matrix" values="0 0 0 0 0 0 0 0 0 0 0 0 0 0 0 0 0 0 127 0" result="hardAlpha"/>
<feOffset dy="10"/>
<feGaussianBlur stdDeviation="10"/>
<feComposite in2="hardAlpha" operator="out"/>
<feColorMatrix type="matrix" values="0 0 0 0 0 0 0 0 0 0 0 0 0 0 0 0 0 0 0.25 0"/>
<feBlend mode="normal" in2="effect1_backgroundBlur_537_1763" result="effect2_dropShadow_537_1763"/>
<feColorMatrix in="SourceAlpha" type="matrix" values="0 0 0 0 0 0 0 0 0 0 0 0 0 0 0 0 0 0 127 0" result="hardAlpha"/>
<feOffset/>
<feGaussianBlur stdDeviation="1"/>
<feComposite in2="hardAlpha" operator="out"/>
<feColorMatrix type="matrix" values="0 0 0 0 0 0 0 0 0 0 0 0 0 0 0 0 0 0 0.06 0"/>
<feBlend mode="normal" in2="effect2_dropShadow_537_1763" result="effect3_dropShadow_537_1763"/>
<feBlend mode="normal" in="SourceGraphic" in2="effect3_dropShadow_537_1763" result="shape"/>
</filter>
</defs>
</svg>
